<svg xmlns="http://www.w3.org/2000/svg" xmlns:xlink="http://www.w3.org/1999/xlink" version="1.1" width="2330.00004901886" height="1007.0000359535219" style="width: 2330.00004901886px; height: 1007.0000359535219px; background: #ffffff" viewBox="150.00000057220458 91.99999990463257 2330.00004901886 1007.0000359535219"><style id="v-3" type="text/css">        .joint-element .scalable * {            vector-effect: non-scaling-stroke;        }    </style><defs joint-selector="defs"><marker id="v-21252848929" orient="auto" overflow="visible" markerUnits="userSpaceOnUse"><path id="v-63" stroke="#444444" fill="#444444" transform="rotate(180)" d="M 20 -10 0 0 20 10 Z"></path></marker></defs><g joint-selector="layers"  transform="matrix(1,0,0,1,0,0)"><g  style="pointer-events: none;"></g><g ></g><g  style="user-select: none;"><!--z-index:0--><!--z-index:1--><!--z-index:2--><!--z-index:3--><!--z-index:4--><!--z-index:5--><!--z-index:6--><!--z-index:7--><!--z-index:8--><!--z-index:9--><!--z-index:10--><!--z-index:11--><!--z-index:12--><g   id="j_3"  transform="translate(20,1263)"><g id="v-8"><text  id="v-9" font-size="24px" xml:space="preserve" y="0.8em" font-weight="normal" text-anchor="start" fill="#444444" pointer-events="none" display="block" font-family="Tahoma, Verdana, Helvetica, Arial"><tspan dy="0"  display="none">Monday, May 11, 2026 at 5:55 PM Central European Summer Time</tspan></text></g></g><!--z-index:13--><g   id="j_2"  transform="translate(20,1229)"><g id="v-6"><text  id="v-7" font-size="24px" xml:space="preserve" y="0.8em" font-weight="normal" text-anchor="start" fill="#444444" pointer-events="none" display="block" font-family="Tahoma, Verdana, Helvetica, Arial"><tspan dy="0"  display="none">Recording state machine</tspan></text></g></g><!--z-index:14--><g   id="j_1"  transform="translate(20,1183)"><g id="v-4"><text  id="v-5" font-size="36px" xml:space="preserve" y="0.8em" font-weight="normal" text-anchor="start" fill="#444444" pointer-events="none" display="block" font-family="Tahoma, Verdana, Helvetica, Arial"><tspan dy="0"  display="none">Component View: LABS - Recording State Machine</tspan></text></g></g><!--z-index:15--><g   id="j_6"  transform="translate(200,142)" style="; opacity: 1;"><g id="v-25"><rect  id="v-26" width="2230" height="907" rx="0" ry="0" stroke-width="2" pointer-events="none" stroke="#182a31" fill="#ffffff" opacity="1" stroke-dasharray=""></rect><text  id="v-27" font-size="33.599999999999994px" xml:space="preserve" y="868" font-weight="bold" text-anchor="start" pointer-events="visible" font-family="Tahoma, Verdana, Helvetica, Arial" fill="#182a31" transform="matrix(1,0,0,1,15,0)"><tspan dy="0" >LABS</tspan></text><text  id="v-28" font-size="16.799999999999997px" xml:space="preserve" y="892" font-weight="normal" text-anchor="start" pointer-events="visible" font-family="Tahoma, Verdana, Helvetica, Arial" fill="#182a31" transform="matrix(1,0,0,1,15,0)"><tspan dy="0" >[Software System]</tspan></text><image  id="v-29" pointer-events="visible"></image></g></g><!--z-index:16--><g   id="j_5"  transform="translate(250,192)" style="; opacity: 1;"><g id="v-20"><rect  id="v-21" width="2130" height="728" rx="0" ry="0" stroke-width="2" pointer-events="none" stroke="#324047" fill="#ffffff" opacity="1" stroke-dasharray=""></rect><text  id="v-22" font-size="33.599999999999994px" xml:space="preserve" y="689" font-weight="bold" text-anchor="start" pointer-events="visible" font-family="Tahoma, Verdana, Helvetica, Arial" fill="#324047" transform="matrix(1,0,0,1,15,0)"><tspan dy="0" >Recording State Machine</tspan></text><text  id="v-23" font-size="16.799999999999997px" xml:space="preserve" y="713" font-weight="normal" text-anchor="start" pointer-events="visible" font-family="Tahoma, Verdana, Helvetica, Arial" fill="#324047" transform="matrix(1,0,0,1,15,0)"><tspan dy="0" >[Container]</tspan></text><image  id="v-24" pointer-events="visible"></image></g></g><!--z-index:17--><g   id="j_4"  transform="translate(300,491)" style=""><g  id="v-13" style="opacity: 1;"><rect  id="v-14" rx="20" ry="20" stroke-width="2" pointer-events="visiblePainted" fill="#eceff1" stroke="#d4d7d9" stroke-dasharray="" width="450" height="300"></rect><text  id="v-15" font-size="33.599999999999994px" xml:space="preserve" y="86.9" font-weight="bold" text-anchor="middle" pointer-events="visible" font-family="Tahoma, Verdana, Helvetica, Arial" fill="#455a64" dominant-baseline="hanging" transform="matrix(1,0,0,1,225,0)"><tspan dy="0" >IDLE</tspan></text><text  id="v-16" font-size="16.799999999999997px" xml:space="preserve" y="128.5" text-anchor="middle" font-family="Tahoma, Verdana, Helvetica, Arial" fill="#455a64" dominant-baseline="hanging" transform="matrix(1,0,0,1,225,0)" style="display: block;"><tspan dy="0" >[Component: Python]</tspan></text><text  id="v-17" font-size="24px" xml:space="preserve" y="160.3" text-anchor="middle" font-family="Tahoma, Verdana, Helvetica, Arial" fill="#455a64" dominant-baseline="hanging" transform="matrix(1,0,0,1,225,0)" style="display: block;"><tspan dy="0" >Waiting for the operator to start</tspan><tspan dy="1.2em" x="0" >a new episode recording</tspan></text><g  id="v-18" color="#455a64" transform="matrix(1,0,0,1,222.5,268)" display="none"><g ></g><g ></g><g ></g><g ></g></g><image  id="v-19"></image></g></g><!--z-index:18--><g   id="j_7"  transform="translate(1090,242)" style=""><g  id="v-33" style="opacity: 1;"><rect  id="v-34" rx="20" ry="20" stroke-width="2" pointer-events="visiblePainted" fill="#ad1457" stroke="#9c124e" stroke-dasharray="" width="450" height="300"></rect><text  id="v-35" font-size="33.599999999999994px" xml:space="preserve" y="86.9" font-weight="bold" text-anchor="middle" pointer-events="visible" font-family="Tahoma, Verdana, Helvetica, Arial" fill="#ffffff" dominant-baseline="hanging" transform="matrix(1,0,0,1,225,0)"><tspan dy="0" >RECORDING</tspan></text><text  id="v-36" font-size="16.799999999999997px" xml:space="preserve" y="128.5" text-anchor="middle" font-family="Tahoma, Verdana, Helvetica, Arial" fill="#ffffff" dominant-baseline="hanging" transform="matrix(1,0,0,1,225,0)" style="display: block;"><tspan dy="0" >[Component: Python]</tspan></text><text  id="v-37" font-size="24px" xml:space="preserve" y="160.3" text-anchor="middle" font-family="Tahoma, Verdana, Helvetica, Arial" fill="#ffffff" dominant-baseline="hanging" transform="matrix(1,0,0,1,225,0)" style="display: block;"><tspan dy="0" >Capturing ROS topics in MCAP</tspan><tspan dy="1.2em" x="0" >for the current episode</tspan></text><g  id="v-38" color="#ffffff" transform="matrix(1,0,0,1,222.5,268)" display="none"><g ></g><g ></g><g ></g><g ></g></g><image  id="v-39"></image></g></g><!--z-index:19--><g   id="j_8"  transform="translate(1880,491)" style=""><g  id="v-43" style="opacity: 1;"><rect  id="v-44" rx="20" ry="20" stroke-width="2" pointer-events="visiblePainted" fill="#6a1b9a" stroke="#5f188b" stroke-dasharray="" width="450" height="300"></rect><text  id="v-45" font-size="33.599999999999994px" xml:space="preserve" y="72.5" font-weight="bold" text-anchor="middle" pointer-events="visible" font-family="Tahoma, Verdana, Helvetica, Arial" fill="#ffffff" dominant-baseline="hanging" transform="matrix(1,0,0,1,225,0)"><tspan dy="0" >REVIEWING</tspan></text><text  id="v-46" font-size="16.799999999999997px" xml:space="preserve" y="114.1" text-anchor="middle" font-family="Tahoma, Verdana, Helvetica, Arial" fill="#ffffff" dominant-baseline="hanging" transform="matrix(1,0,0,1,225,0)" style="display: block;"><tspan dy="0" >[Component: Python]</tspan></text><text  id="v-47" font-size="24px" xml:space="preserve" y="145.89999999999998" text-anchor="middle" font-family="Tahoma, Verdana, Helvetica, Arial" fill="#ffffff" dominant-baseline="hanging" transform="matrix(1,0,0,1,225,0)" style="display: block;"><tspan dy="0" >Episode recorded and waiting</tspan><tspan dy="1.2em" x="0" >for label (success, failure, or</tspan><tspan dy="1.2em" x="0" >deletion)</tspan></text><g  id="v-48" color="#ffffff" transform="matrix(1,0,0,1,222.5,268)" display="none"><g ></g><g ></g><g ></g><g ></g></g><image  id="v-49"></image></g></g><!--z-index:20--><g   id="j_9"  style="opacity: 1;"><path fill="none" cursor="pointer" stroke="transparent" stroke-linecap="round" joint-selector="wrapper" id="v-61" stroke-width="10" stroke-linejoin="round" d="M 750 499.16 L 912 397 C 917.3333333333333 393.66666666666663 923.3333333333333 392 930 392 L 1090 392"></path><path fill="none" pointer-events="none" joint-selector="line" id="v-60" stroke="#444444" stroke-width="2" stroke-linejoin="round" stroke-dasharray="8 8" d="M 750 499.16 L 912 397 C 917.3333333333333 393.66666666666663 923.3333333333333 392 930 392 L 1090 392" marker-end="url(#v-21252848929)"></path><g id="v-53" ><g id="v-54"  label-idx="0" cursor="move" transform="matrix(1,0,0,1,920.3594970703125,393.28936767578125)" style="cursor: default;"><rect joint-selector="rect" id="v-57" fill="#ffffff" rx="3" ry="3" x="-92.273193359375" y="-16.137222290039062" width="184.54638671875" height="28.004669189453125" pointer-events="none"  style="display: block;"></rect><text joint-selector="text" id="v-56" font-size="24px" xml:space="preserve" fill="#444444" text-anchor="middle" pointer-events="none" font-family="Tahoma, Verdana, Helvetica, Arial" font-weight="normal"  style="display: block;"><tspan dy="0.3em" >start_recording</tspan></text></g><g id="v-55"  label-idx="1" cursor="move" transform="matrix(1,0,0,1,910.3594970703125,405.28936767578125)" style="cursor: default;"><rect joint-selector="rect" id="v-59" fill="#ffffff" rx="3" ry="3" x="-4.547473508864641e-13" y="0" width="0" height="0"  display="none"></rect><text joint-selector="text" id="v-58" fill="#000000" font-size="14" text-anchor="middle" text-vertical-anchor="middle" pointer-events="none"></text></g></g></g><!--z-index:21--><g   id="j_10"  style="opacity: 1;"><path fill="none" cursor="pointer" stroke="transparent" stroke-linecap="round" joint-selector="wrapper" id="v-75" stroke-width="10" stroke-linejoin="round" d="M 1540 392 L 1700 392 C 1706.6666666666665 392 1712.6666666666665 393.66666666666663 1718 397 L 1880 499.16"></path><path fill="none" pointer-events="none" joint-selector="line" id="v-74" stroke="#444444" stroke-width="2" stroke-linejoin="round" stroke-dasharray="8 8" d="M 1540 392 L 1700 392 C 1706.6666666666665 392 1712.6666666666665 393.66666666666663 1718 397 L 1880 499.16" marker-end="url(#v-21252848929)"></path><g id="v-67" ><g id="v-68"  label-idx="0" cursor="move" transform="matrix(1,0,0,1,1709.6405029296875,393.28936767578125)" style="cursor: default;"><rect joint-selector="rect" id="v-71" fill="#ffffff" rx="3" ry="3" x="-89.97593688964844" y="-16.137222290039062" width="179.95187377929688" height="28.004669189453125" pointer-events="none"  style="display: block;"></rect><text joint-selector="text" id="v-70" font-size="24px" xml:space="preserve" fill="#444444" text-anchor="middle" pointer-events="none" font-family="Tahoma, Verdana, Helvetica, Arial" font-weight="normal"  style="display: block;"><tspan dy="0.3em" >stop_recording</tspan></text></g><g id="v-69"  label-idx="1" cursor="move" transform="matrix(1,0,0,1,1699.6405029296875,405.28936767578125)" style="cursor: default;"><rect joint-selector="rect" id="v-73" fill="#ffffff" rx="3" ry="3" x="0" y="0" width="0" height="0"  display="none"></rect><text joint-selector="text" id="v-72" fill="#000000" font-size="14" text-anchor="middle" text-vertical-anchor="middle" pointer-events="none"></text></g></g></g><!--z-index:22--><g   id="j_11"  style="opacity: 1;"><path fill="none" cursor="pointer" stroke="transparent" stroke-linecap="round" joint-selector="wrapper" id="v-87" stroke-width="10" stroke-linejoin="round" d="M 1880 619.92 L 1720 605 C 1713.3333333333333 604.3333333333333 1706.6666666666665 604 1700 604 L 930 604 C 923.3333333333333 604 916.6666666666665 604.3333333333333 910 605 L 750 619.92"></path><path fill="none" pointer-events="none" joint-selector="line" id="v-86" stroke="#444444" stroke-width="2" stroke-linejoin="round" stroke-dasharray="8 8" d="M 1880 619.92 L 1720 605 C 1713.3333333333333 604.3333333333333 1706.6666666666665 604 1700 604 L 930 604 C 923.3333333333333 604 916.6666666666665 604.3333333333333 910 605 L 750 619.92" marker-end="url(#v-21252848929)"></path><g id="v-79" ><g id="v-80"  label-idx="0" cursor="move" transform="matrix(1,0,0,1,1315,604)" style="cursor: default;"><rect joint-selector="rect" id="v-83" fill="#ffffff" rx="3" ry="3" x="-84.5974349975586" y="-16.137222290039062" width="169.1948699951172" height="28.004669189453125" pointer-events="none"  style="display: block;"></rect><text joint-selector="text" id="v-82" font-size="24px" xml:space="preserve" fill="#444444" text-anchor="middle" pointer-events="none" font-family="Tahoma, Verdana, Helvetica, Arial" font-weight="normal"  style="display: block;"><tspan dy="0.3em" >mark_success</tspan></text></g><g id="v-81"  label-idx="1" cursor="move" transform="matrix(1,0,0,1,1305,616)" style="cursor: default;"><rect joint-selector="rect" id="v-85" fill="#ffffff" rx="3" ry="3" x="0" y="0" width="0" height="0"  display="none"></rect><text joint-selector="text" id="v-84" fill="#000000" font-size="14" text-anchor="middle" text-vertical-anchor="middle" pointer-events="none"></text></g></g></g><!--z-index:23--><g   id="j_12"  style="opacity: 1;"><path fill="none" cursor="pointer" stroke="transparent" stroke-linecap="round" joint-selector="wrapper" id="v-99" stroke-width="10" stroke-linejoin="round" d="M 1880 662.08 L 1720 677 C 1713.3333333333333 677.6666666666666 1706.6666666666665 678 1700 678 L 930 678 C 923.3333333333333 678 916.6666666666665 677.6666666666666 910 677 L 750 662.08"></path><path fill="none" pointer-events="none" joint-selector="line" id="v-98" stroke="#444444" stroke-width="2" stroke-linejoin="round" stroke-dasharray="8 8" d="M 1880 662.08 L 1720 677 C 1713.3333333333333 677.6666666666666 1706.6666666666665 678 1700 678 L 930 678 C 923.3333333333333 678 916.6666666666665 677.6666666666666 910 677 L 750 662.08" marker-end="url(#v-21252848929)"></path><g id="v-91" ><g id="v-92"  label-idx="0" cursor="move" transform="matrix(1,0,0,1,1315,678)" style="cursor: default;"><rect joint-selector="rect" id="v-95" fill="#ffffff" rx="3" ry="3" x="-76.48410034179688" y="-16.137222290039062" width="152.96820068359375" height="28.004669189453125" pointer-events="none"  style="display: block;"></rect><text joint-selector="text" id="v-94" font-size="24px" xml:space="preserve" fill="#444444" text-anchor="middle" pointer-events="none" font-family="Tahoma, Verdana, Helvetica, Arial" font-weight="normal"  style="display: block;"><tspan dy="0.3em" >mark_failure</tspan></text></g><g id="v-93"  label-idx="1" cursor="move" transform="matrix(1,0,0,1,1305,690)" style="cursor: default;"><rect joint-selector="rect" id="v-97" fill="#ffffff" rx="3" ry="3" x="0" y="0" width="0" height="0"  display="none"></rect><text joint-selector="text" id="v-96" fill="#000000" font-size="14" text-anchor="middle" text-vertical-anchor="middle" pointer-events="none"></text></g></g></g><!--z-index:24--><g   id="j_13"  style="opacity: 1;"><path fill="none" cursor="pointer" stroke="transparent" stroke-linecap="round" joint-selector="wrapper" id="v-108" stroke-width="10" stroke-linejoin="round" d="M 1880 704.23 L 1720 749 C 1713.3333333333333 751 1706.6666666666665 752 1700 752 L 930 752 C 923.3333333333333 752 916.6666666666665 751 910 749 L 750 704.23"></path><path fill="none" pointer-events="none" joint-selector="line" id="v-107" stroke="#444444" stroke-width="2" stroke-linejoin="round" stroke-dasharray="8 8" d="M 1880 704.23 L 1720 749 C 1713.3333333333333 751 1706.6666666666665 752 1700 752 L 930 752 C 923.3333333333333 752 916.6666666666665 751 910 749 L 750 704.23" marker-end="url(#v-21252848929)"></path><g id="v-100" ><g id="v-101"  label-idx="0" cursor="move" transform="matrix(1,0,0,1,1315,752)" style="cursor: default;"><rect joint-selector="rect" id="v-104" fill="#ffffff" rx="3" ry="3" x="-36.883750915527344" y="-16.137222290039062" width="73.76750183105469" height="28.004669189453125" pointer-events="none"  style="display: block;"></rect><text joint-selector="text" id="v-103" font-size="24px" xml:space="preserve" fill="#444444" text-anchor="middle" pointer-events="none" font-family="Tahoma, Verdana, Helvetica, Arial" font-weight="normal"  style="display: block;"><tspan dy="0.3em" >delete</tspan></text></g><g id="v-102"  label-idx="1" cursor="move" transform="matrix(1,0,0,1,1305,764)" style="cursor: default;"><rect joint-selector="rect" id="v-106" fill="#ffffff" rx="3" ry="3" x="0" y="0" width="0" height="0"  display="none"></rect><text joint-selector="text" id="v-105" fill="#000000" font-size="14" text-anchor="middle" text-vertical-anchor="middle" pointer-events="none"></text></g></g></g><!--z-index:25--></g><g  style="user-select: none;"></g><g ></g><g  display="none"></g></g></svg>